<mxfile host="app.diagrams.net" modified="2023-11-20T00:01:42.460Z" agent="Mozilla/5.0 (Macintosh; Intel Mac OS X 10_15_7) AppleWebKit/537.36 (KHTML, like Gecko) Chrome/117.0.0.0 Safari/537.36" etag="1OPYJ2ap-AvVln-_KSty" version="22.1.3" type="device">
  <diagram name="Page-1" id="CXOsUuS8F16m00WIspQw">
    <mxGraphModel dx="1612" dy="523" grid="1" gridSize="10" guides="1" tooltips="1" connect="1" arrows="1" fold="1" page="1" pageScale="1" pageWidth="850" pageHeight="1100" math="0" shadow="0">
      <root>
        <mxCell id="0" />
        <mxCell id="1" parent="0" />
        <mxCell id="GDixg9mTXuQQ2B-EIW4m-1" value="" style="ellipse;whiteSpace=wrap;html=1;" vertex="1" parent="1">
          <mxGeometry x="205" y="608.6899999999999" width="72.5" height="53.91" as="geometry" />
        </mxCell>
        <mxCell id="GDixg9mTXuQQ2B-EIW4m-2" value="" style="ellipse;whiteSpace=wrap;html=1;" vertex="1" parent="1">
          <mxGeometry x="-321.25" y="570" width="72.5" height="53.91" as="geometry" />
        </mxCell>
        <mxCell id="GDixg9mTXuQQ2B-EIW4m-3" value="" style="ellipse;whiteSpace=wrap;html=1;" vertex="1" parent="1">
          <mxGeometry x="266.88" y="364" width="93.76" height="50" as="geometry" />
        </mxCell>
        <mxCell id="GDixg9mTXuQQ2B-EIW4m-4" style="rounded=0;orthogonalLoop=1;jettySize=auto;html=1;exitX=0;exitY=0.25;exitDx=0;exitDy=0;entryX=1;entryY=1;entryDx=0;entryDy=0;endArrow=none;endFill=0;" edge="1" parent="1" source="GDixg9mTXuQQ2B-EIW4m-6" target="GDixg9mTXuQQ2B-EIW4m-129">
          <mxGeometry relative="1" as="geometry" />
        </mxCell>
        <mxCell id="GDixg9mTXuQQ2B-EIW4m-5" style="rounded=0;orthogonalLoop=1;jettySize=auto;html=1;exitX=0;exitY=0.25;exitDx=0;exitDy=0;entryX=1;entryY=0.5;entryDx=0;entryDy=0;endArrow=none;endFill=0;" edge="1" parent="1" source="GDixg9mTXuQQ2B-EIW4m-6" target="GDixg9mTXuQQ2B-EIW4m-130">
          <mxGeometry relative="1" as="geometry" />
        </mxCell>
        <mxCell id="GDixg9mTXuQQ2B-EIW4m-6" value="" style="rounded=0;whiteSpace=wrap;html=1;" vertex="1" parent="1">
          <mxGeometry x="450.01" y="360" width="140" height="60" as="geometry" />
        </mxCell>
        <mxCell id="GDixg9mTXuQQ2B-EIW4m-7" value="" style="rounded=0;whiteSpace=wrap;html=1;" vertex="1" parent="1">
          <mxGeometry x="440" y="890" width="140" height="60" as="geometry" />
        </mxCell>
        <mxCell id="GDixg9mTXuQQ2B-EIW4m-8" value="" style="rounded=0;whiteSpace=wrap;html=1;" vertex="1" parent="1">
          <mxGeometry x="-60" y="305" width="140" height="60" as="geometry" />
        </mxCell>
        <mxCell id="GDixg9mTXuQQ2B-EIW4m-9" value="" style="rounded=0;whiteSpace=wrap;html=1;" vertex="1" parent="1">
          <mxGeometry x="710" y="110" width="140" height="60" as="geometry" />
        </mxCell>
        <mxCell id="GDixg9mTXuQQ2B-EIW4m-10" value="" style="rounded=0;whiteSpace=wrap;html=1;" vertex="1" parent="1">
          <mxGeometry x="450" y="100" width="140" height="60" as="geometry" />
        </mxCell>
        <mxCell id="GDixg9mTXuQQ2B-EIW4m-11" style="edgeStyle=orthogonalEdgeStyle;rounded=0;orthogonalLoop=1;jettySize=auto;html=1;entryX=0;entryY=0.5;entryDx=0;entryDy=0;endArrow=none;endFill=0;" edge="1" parent="1" source="GDixg9mTXuQQ2B-EIW4m-13" target="GDixg9mTXuQQ2B-EIW4m-39">
          <mxGeometry relative="1" as="geometry" />
        </mxCell>
        <mxCell id="GDixg9mTXuQQ2B-EIW4m-12" style="edgeStyle=orthogonalEdgeStyle;rounded=0;orthogonalLoop=1;jettySize=auto;html=1;entryX=0.5;entryY=0;entryDx=0;entryDy=0;endArrow=none;endFill=0;" edge="1" parent="1" source="GDixg9mTXuQQ2B-EIW4m-13" target="GDixg9mTXuQQ2B-EIW4m-40">
          <mxGeometry relative="1" as="geometry" />
        </mxCell>
        <mxCell id="GDixg9mTXuQQ2B-EIW4m-13" value="Building" style="rounded=0;whiteSpace=wrap;html=1;" vertex="1" parent="1">
          <mxGeometry x="-50" y="105" width="120" height="40" as="geometry" />
        </mxCell>
        <mxCell id="GDixg9mTXuQQ2B-EIW4m-14" style="edgeStyle=orthogonalEdgeStyle;rounded=0;orthogonalLoop=1;jettySize=auto;html=1;entryX=1;entryY=0.5;entryDx=0;entryDy=0;startArrow=none;startFill=0;endArrow=none;endFill=0;exitX=0.9;exitY=0.733;exitDx=0;exitDy=0;exitPerimeter=0;" edge="1" parent="1" source="GDixg9mTXuQQ2B-EIW4m-67" target="GDixg9mTXuQQ2B-EIW4m-39">
          <mxGeometry relative="1" as="geometry">
            <Array as="points">
              <mxPoint x="450" y="125" />
            </Array>
          </mxGeometry>
        </mxCell>
        <mxCell id="GDixg9mTXuQQ2B-EIW4m-15" style="rounded=0;orthogonalLoop=1;jettySize=auto;html=1;entryX=0.5;entryY=0;entryDx=0;entryDy=0;endArrow=none;endFill=0;exitX=0.103;exitY=0;exitDx=0;exitDy=0;exitPerimeter=0;" edge="1" parent="1" source="GDixg9mTXuQQ2B-EIW4m-138" target="GDixg9mTXuQQ2B-EIW4m-42">
          <mxGeometry relative="1" as="geometry">
            <mxPoint x="570" y="230" as="targetPoint" />
          </mxGeometry>
        </mxCell>
        <mxCell id="GDixg9mTXuQQ2B-EIW4m-16" value="Classroom" style="rounded=0;whiteSpace=wrap;html=1;perimeterSpacing=0;" vertex="1" parent="1">
          <mxGeometry x="460" y="110" width="120" height="40" as="geometry" />
        </mxCell>
        <mxCell id="GDixg9mTXuQQ2B-EIW4m-17" style="edgeStyle=orthogonalEdgeStyle;rounded=0;orthogonalLoop=1;jettySize=auto;html=1;entryX=0.5;entryY=1;entryDx=0;entryDy=0;endArrow=none;endFill=0;exitX=0.5;exitY=0;exitDx=0;exitDy=0;" edge="1" parent="1" source="GDixg9mTXuQQ2B-EIW4m-8" target="GDixg9mTXuQQ2B-EIW4m-40">
          <mxGeometry relative="1" as="geometry" />
        </mxCell>
        <mxCell id="GDixg9mTXuQQ2B-EIW4m-18" style="edgeStyle=orthogonalEdgeStyle;rounded=0;orthogonalLoop=1;jettySize=auto;html=1;entryX=0.5;entryY=0;entryDx=0;entryDy=0;endArrow=none;endFill=0;exitX=0;exitY=0.417;exitDx=0;exitDy=0;exitPerimeter=0;" edge="1" parent="1" source="GDixg9mTXuQQ2B-EIW4m-8" target="GDixg9mTXuQQ2B-EIW4m-44">
          <mxGeometry relative="1" as="geometry" />
        </mxCell>
        <mxCell id="GDixg9mTXuQQ2B-EIW4m-19" style="edgeStyle=orthogonalEdgeStyle;rounded=0;orthogonalLoop=1;jettySize=auto;html=1;entryX=0.5;entryY=0;entryDx=0;entryDy=0;endArrow=none;endFill=0;" edge="1" parent="1" target="GDixg9mTXuQQ2B-EIW4m-45">
          <mxGeometry relative="1" as="geometry">
            <mxPoint x="80" y="335" as="sourcePoint" />
          </mxGeometry>
        </mxCell>
        <mxCell id="GDixg9mTXuQQ2B-EIW4m-20" value="Office" style="rounded=0;whiteSpace=wrap;html=1;" vertex="1" parent="1">
          <mxGeometry x="-50" y="315" width="120" height="40" as="geometry" />
        </mxCell>
        <mxCell id="GDixg9mTXuQQ2B-EIW4m-21" style="edgeStyle=orthogonalEdgeStyle;rounded=0;orthogonalLoop=1;jettySize=auto;html=1;entryX=0.5;entryY=1;entryDx=0;entryDy=0;endArrow=none;endFill=0;" edge="1" parent="1" source="GDixg9mTXuQQ2B-EIW4m-23" target="GDixg9mTXuQQ2B-EIW4m-48">
          <mxGeometry relative="1" as="geometry">
            <mxPoint x="-120.00000000000023" y="705.0000000000002" as="targetPoint" />
          </mxGeometry>
        </mxCell>
        <mxCell id="GDixg9mTXuQQ2B-EIW4m-22" style="edgeStyle=orthogonalEdgeStyle;rounded=0;orthogonalLoop=1;jettySize=auto;html=1;entryX=0;entryY=0.5;entryDx=0;entryDy=0;endArrow=none;endFill=0;" edge="1" parent="1" source="GDixg9mTXuQQ2B-EIW4m-23" target="GDixg9mTXuQQ2B-EIW4m-49">
          <mxGeometry relative="1" as="geometry">
            <Array as="points">
              <mxPoint x="120" y="820" />
              <mxPoint x="120" y="725" />
            </Array>
          </mxGeometry>
        </mxCell>
        <mxCell id="GDixg9mTXuQQ2B-EIW4m-23" value="Department" style="rounded=0;whiteSpace=wrap;html=1;" vertex="1" parent="1">
          <mxGeometry x="-40" y="800" width="120" height="40" as="geometry" />
        </mxCell>
        <mxCell id="GDixg9mTXuQQ2B-EIW4m-24" style="edgeStyle=orthogonalEdgeStyle;rounded=0;orthogonalLoop=1;jettySize=auto;html=1;entryX=1;entryY=0.5;entryDx=0;entryDy=0;endArrow=none;endFill=0;" edge="1" parent="1" target="GDixg9mTXuQQ2B-EIW4m-51">
          <mxGeometry relative="1" as="geometry">
            <mxPoint x="440" y="920" as="sourcePoint" />
            <Array as="points">
              <mxPoint x="370" y="920" />
              <mxPoint x="370" y="920" />
            </Array>
          </mxGeometry>
        </mxCell>
        <mxCell id="GDixg9mTXuQQ2B-EIW4m-25" style="edgeStyle=orthogonalEdgeStyle;rounded=0;orthogonalLoop=1;jettySize=auto;html=1;entryX=0;entryY=0.5;entryDx=0;entryDy=0;endArrow=none;endFill=0;" edge="1" parent="1" target="GDixg9mTXuQQ2B-EIW4m-53">
          <mxGeometry relative="1" as="geometry">
            <mxPoint x="580" y="920" as="sourcePoint" />
          </mxGeometry>
        </mxCell>
        <mxCell id="GDixg9mTXuQQ2B-EIW4m-26" value="Course" style="rounded=0;whiteSpace=wrap;html=1;" vertex="1" parent="1">
          <mxGeometry x="450" y="900" width="120" height="40" as="geometry" />
        </mxCell>
        <mxCell id="GDixg9mTXuQQ2B-EIW4m-27" style="edgeStyle=orthogonalEdgeStyle;rounded=0;orthogonalLoop=1;jettySize=auto;html=1;entryX=0.5;entryY=0;entryDx=0;entryDy=0;endArrow=none;endFill=0;" edge="1" parent="1" target="GDixg9mTXuQQ2B-EIW4m-56">
          <mxGeometry relative="1" as="geometry">
            <mxPoint x="520" y="420" as="sourcePoint" />
          </mxGeometry>
        </mxCell>
        <mxCell id="GDixg9mTXuQQ2B-EIW4m-28" value="Section" style="rounded=0;whiteSpace=wrap;html=1;" vertex="1" parent="1">
          <mxGeometry x="460" y="370" width="120" height="40" as="geometry" />
        </mxCell>
        <mxCell id="GDixg9mTXuQQ2B-EIW4m-29" value="Timeslot" style="rounded=0;whiteSpace=wrap;html=1;" vertex="1" parent="1">
          <mxGeometry x="720" y="120" width="120" height="40" as="geometry" />
        </mxCell>
        <mxCell id="GDixg9mTXuQQ2B-EIW4m-30" style="rounded=0;orthogonalLoop=1;jettySize=auto;html=1;exitX=0;exitY=0.5;exitDx=0;exitDy=0;entryX=1;entryY=0.5;entryDx=0;entryDy=0;endArrow=none;endFill=0;" edge="1" parent="1" source="GDixg9mTXuQQ2B-EIW4m-31" target="GDixg9mTXuQQ2B-EIW4m-2">
          <mxGeometry relative="1" as="geometry" />
        </mxCell>
        <mxCell id="GDixg9mTXuQQ2B-EIW4m-31" value="Chair" style="rounded=0;whiteSpace=wrap;html=1;" vertex="1" parent="1">
          <mxGeometry x="-175" y="515" width="120" height="40" as="geometry" />
        </mxCell>
        <mxCell id="GDixg9mTXuQQ2B-EIW4m-32" style="rounded=0;orthogonalLoop=1;jettySize=auto;html=1;endArrow=none;endFill=0;exitX=1.007;exitY=0.629;exitDx=0;exitDy=0;exitPerimeter=0;" edge="1" parent="1" source="GDixg9mTXuQQ2B-EIW4m-33" target="GDixg9mTXuQQ2B-EIW4m-55">
          <mxGeometry relative="1" as="geometry" />
        </mxCell>
        <mxCell id="GDixg9mTXuQQ2B-EIW4m-33" value="Instructor" style="rounded=0;whiteSpace=wrap;html=1;" vertex="1" parent="1">
          <mxGeometry x="90" y="515" width="120" height="40" as="geometry" />
        </mxCell>
        <mxCell id="GDixg9mTXuQQ2B-EIW4m-34" style="edgeStyle=orthogonalEdgeStyle;rounded=0;orthogonalLoop=1;jettySize=auto;html=1;entryX=1;entryY=0.5;entryDx=0;entryDy=0;endArrow=none;endFill=0;" edge="1" parent="1" source="GDixg9mTXuQQ2B-EIW4m-38" target="GDixg9mTXuQQ2B-EIW4m-49">
          <mxGeometry relative="1" as="geometry" />
        </mxCell>
        <mxCell id="GDixg9mTXuQQ2B-EIW4m-35" style="edgeStyle=orthogonalEdgeStyle;rounded=0;orthogonalLoop=1;jettySize=auto;html=1;entryX=0.5;entryY=1;entryDx=0;entryDy=0;endArrow=none;endFill=0;" edge="1" parent="1" source="GDixg9mTXuQQ2B-EIW4m-38" target="GDixg9mTXuQQ2B-EIW4m-56">
          <mxGeometry relative="1" as="geometry">
            <Array as="points" />
          </mxGeometry>
        </mxCell>
        <mxCell id="GDixg9mTXuQQ2B-EIW4m-36" style="rounded=0;orthogonalLoop=1;jettySize=auto;html=1;entryX=0;entryY=0.5;entryDx=0;entryDy=0;endArrow=none;endFill=0;exitX=1;exitY=0.5;exitDx=0;exitDy=0;" edge="1" parent="1" source="GDixg9mTXuQQ2B-EIW4m-38" target="GDixg9mTXuQQ2B-EIW4m-95">
          <mxGeometry relative="1" as="geometry" />
        </mxCell>
        <mxCell id="GDixg9mTXuQQ2B-EIW4m-37" style="rounded=0;orthogonalLoop=1;jettySize=auto;html=1;entryX=0;entryY=0.5;entryDx=0;entryDy=0;endArrow=none;endFill=0;" edge="1" parent="1" source="GDixg9mTXuQQ2B-EIW4m-38" target="GDixg9mTXuQQ2B-EIW4m-96">
          <mxGeometry relative="1" as="geometry" />
        </mxCell>
        <mxCell id="GDixg9mTXuQQ2B-EIW4m-38" value="Student" style="rounded=0;whiteSpace=wrap;html=1;" vertex="1" parent="1">
          <mxGeometry x="460" y="705" width="120" height="40" as="geometry" />
        </mxCell>
        <mxCell id="GDixg9mTXuQQ2B-EIW4m-39" value="has" style="rhombus;whiteSpace=wrap;html=1;" vertex="1" parent="1">
          <mxGeometry x="240" y="97.5" width="70" height="55" as="geometry" />
        </mxCell>
        <mxCell id="GDixg9mTXuQQ2B-EIW4m-40" value="has" style="rhombus;whiteSpace=wrap;html=1;" vertex="1" parent="1">
          <mxGeometry x="-17.5" y="200" width="55" height="55" as="geometry" />
        </mxCell>
        <mxCell id="GDixg9mTXuQQ2B-EIW4m-41" style="edgeStyle=orthogonalEdgeStyle;rounded=0;orthogonalLoop=1;jettySize=auto;html=1;endArrow=none;endFill=0;" edge="1" parent="1" source="GDixg9mTXuQQ2B-EIW4m-42">
          <mxGeometry relative="1" as="geometry">
            <mxPoint x="520" y="360" as="targetPoint" />
            <Array as="points">
              <mxPoint x="520" y="310" />
              <mxPoint x="520" y="310" />
            </Array>
          </mxGeometry>
        </mxCell>
        <mxCell id="GDixg9mTXuQQ2B-EIW4m-42" value="used by" style="rhombus;whiteSpace=wrap;html=1;rotation=0;" vertex="1" parent="1">
          <mxGeometry x="492.51" y="220" width="55" height="60" as="geometry" />
        </mxCell>
        <mxCell id="GDixg9mTXuQQ2B-EIW4m-43" style="edgeStyle=orthogonalEdgeStyle;rounded=0;orthogonalLoop=1;jettySize=auto;html=1;entryX=0.5;entryY=0;entryDx=0;entryDy=0;endArrow=none;endFill=0;" edge="1" parent="1" source="GDixg9mTXuQQ2B-EIW4m-44">
          <mxGeometry relative="1" as="geometry">
            <mxPoint x="-115" y="515" as="targetPoint" />
          </mxGeometry>
        </mxCell>
        <mxCell id="GDixg9mTXuQQ2B-EIW4m-44" value="used &lt;br&gt;by" style="rhombus;whiteSpace=wrap;html=1;" vertex="1" parent="1">
          <mxGeometry x="-140" y="365" width="50" height="50" as="geometry" />
        </mxCell>
        <mxCell id="GDixg9mTXuQQ2B-EIW4m-45" value="used&lt;br&gt;by" style="rhombus;whiteSpace=wrap;html=1;" vertex="1" parent="1">
          <mxGeometry x="120" y="365" width="50" height="50" as="geometry" />
        </mxCell>
        <mxCell id="GDixg9mTXuQQ2B-EIW4m-46" style="edgeStyle=orthogonalEdgeStyle;rounded=0;orthogonalLoop=1;jettySize=auto;html=1;entryX=0.465;entryY=-0.02;entryDx=0;entryDy=0;entryPerimeter=0;endArrow=none;endFill=0;" edge="1" parent="1" source="GDixg9mTXuQQ2B-EIW4m-45" target="GDixg9mTXuQQ2B-EIW4m-33">
          <mxGeometry relative="1" as="geometry">
            <mxPoint x="143" y="510" as="targetPoint" />
          </mxGeometry>
        </mxCell>
        <mxCell id="GDixg9mTXuQQ2B-EIW4m-47" style="edgeStyle=orthogonalEdgeStyle;rounded=0;orthogonalLoop=1;jettySize=auto;html=1;entryX=0.5;entryY=1;entryDx=0;entryDy=0;endArrow=none;endFill=0;" edge="1" parent="1" source="GDixg9mTXuQQ2B-EIW4m-48">
          <mxGeometry relative="1" as="geometry">
            <mxPoint x="-115" y="555" as="targetPoint" />
          </mxGeometry>
        </mxCell>
        <mxCell id="GDixg9mTXuQQ2B-EIW4m-48" value="has" style="rhombus;whiteSpace=wrap;html=1;" vertex="1" parent="1">
          <mxGeometry x="-140" y="655" width="50" height="50" as="geometry" />
        </mxCell>
        <mxCell id="GDixg9mTXuQQ2B-EIW4m-49" value="has" style="rhombus;whiteSpace=wrap;html=1;" vertex="1" parent="1">
          <mxGeometry x="260" y="705" width="60" height="40" as="geometry" />
        </mxCell>
        <mxCell id="GDixg9mTXuQQ2B-EIW4m-50" style="edgeStyle=orthogonalEdgeStyle;rounded=0;orthogonalLoop=1;jettySize=auto;html=1;endArrow=none;endFill=0;" edge="1" parent="1" source="GDixg9mTXuQQ2B-EIW4m-51">
          <mxGeometry relative="1" as="geometry">
            <mxPoint x="120" y="770" as="targetPoint" />
          </mxGeometry>
        </mxCell>
        <mxCell id="GDixg9mTXuQQ2B-EIW4m-51" value="has" style="rhombus;whiteSpace=wrap;html=1;" vertex="1" parent="1">
          <mxGeometry x="260" y="900" width="60" height="40" as="geometry" />
        </mxCell>
        <mxCell id="GDixg9mTXuQQ2B-EIW4m-52" style="edgeStyle=orthogonalEdgeStyle;rounded=0;orthogonalLoop=1;jettySize=auto;html=1;endArrow=none;endFill=0;exitX=1;exitY=0.5;exitDx=0;exitDy=0;" edge="1" parent="1">
          <mxGeometry relative="1" as="geometry">
            <mxPoint x="780" y="915" as="sourcePoint" />
            <mxPoint x="590" y="390" as="targetPoint" />
            <Array as="points">
              <mxPoint x="840" y="915" />
              <mxPoint x="840" y="385" />
              <mxPoint x="590" y="385" />
            </Array>
          </mxGeometry>
        </mxCell>
        <mxCell id="GDixg9mTXuQQ2B-EIW4m-53" value="offered &lt;br&gt;as" style="rhombus;whiteSpace=wrap;html=1;" vertex="1" parent="1">
          <mxGeometry x="710" y="895" width="70" height="50" as="geometry" />
        </mxCell>
        <mxCell id="GDixg9mTXuQQ2B-EIW4m-54" style="rounded=0;orthogonalLoop=1;jettySize=auto;html=1;entryX=0;entryY=1;entryDx=0;entryDy=0;exitX=1;exitY=0.5;exitDx=0;exitDy=0;endArrow=none;endFill=0;" edge="1" parent="1" source="GDixg9mTXuQQ2B-EIW4m-55" target="GDixg9mTXuQQ2B-EIW4m-6">
          <mxGeometry relative="1" as="geometry" />
        </mxCell>
        <mxCell id="GDixg9mTXuQQ2B-EIW4m-55" value="has" style="rhombus;whiteSpace=wrap;html=1;rotation=0;" vertex="1" parent="1">
          <mxGeometry x="330" y="520" width="60" height="40" as="geometry" />
        </mxCell>
        <mxCell id="GDixg9mTXuQQ2B-EIW4m-56" value="has" style="rhombus;whiteSpace=wrap;html=1;rotation=0;" vertex="1" parent="1">
          <mxGeometry x="494.38" y="498.13" width="51.25" height="45" as="geometry" />
        </mxCell>
        <mxCell id="GDixg9mTXuQQ2B-EIW4m-57" style="rounded=0;orthogonalLoop=1;jettySize=auto;html=1;entryX=0.5;entryY=1;entryDx=0;entryDy=0;endArrow=none;endFill=0;" edge="1" parent="1" source="GDixg9mTXuQQ2B-EIW4m-59" target="GDixg9mTXuQQ2B-EIW4m-9">
          <mxGeometry relative="1" as="geometry" />
        </mxCell>
        <mxCell id="GDixg9mTXuQQ2B-EIW4m-58" style="rounded=0;orthogonalLoop=1;jettySize=auto;html=1;exitX=0.5;exitY=1;exitDx=0;exitDy=0;endArrow=none;endFill=0;" edge="1" parent="1" source="GDixg9mTXuQQ2B-EIW4m-59">
          <mxGeometry relative="1" as="geometry">
            <mxPoint x="590" y="380" as="targetPoint" />
          </mxGeometry>
        </mxCell>
        <mxCell id="GDixg9mTXuQQ2B-EIW4m-59" value="has" style="rhombus;whiteSpace=wrap;html=1;rotation=30;" vertex="1" parent="1">
          <mxGeometry x="690" y="215" width="50" height="50" as="geometry" />
        </mxCell>
        <mxCell id="GDixg9mTXuQQ2B-EIW4m-60" style="rounded=0;orthogonalLoop=1;jettySize=auto;html=1;exitX=1;exitY=0.5;exitDx=0;exitDy=0;entryX=0.5;entryY=0;entryDx=0;entryDy=0;endArrow=none;endFill=0;" edge="1" parent="1" source="GDixg9mTXuQQ2B-EIW4m-61" target="GDixg9mTXuQQ2B-EIW4m-7">
          <mxGeometry relative="1" as="geometry" />
        </mxCell>
        <mxCell id="GDixg9mTXuQQ2B-EIW4m-61" value="prereqs" style="rhombus;whiteSpace=wrap;html=1;" vertex="1" parent="1">
          <mxGeometry x="477.51" y="800" width="70" height="50" as="geometry" />
        </mxCell>
        <mxCell id="GDixg9mTXuQQ2B-EIW4m-62" style="rounded=0;orthogonalLoop=1;jettySize=auto;html=1;entryX=0.5;entryY=0;entryDx=0;entryDy=0;endArrow=none;endFill=0;" edge="1" parent="1" source="GDixg9mTXuQQ2B-EIW4m-63" target="GDixg9mTXuQQ2B-EIW4m-13">
          <mxGeometry relative="1" as="geometry" />
        </mxCell>
        <mxCell id="GDixg9mTXuQQ2B-EIW4m-63" value="&lt;u&gt;B#&lt;/u&gt;" style="ellipse;whiteSpace=wrap;html=1;" vertex="1" parent="1">
          <mxGeometry x="-80" y="30" width="50" height="30" as="geometry" />
        </mxCell>
        <mxCell id="GDixg9mTXuQQ2B-EIW4m-64" style="rounded=0;orthogonalLoop=1;jettySize=auto;html=1;entryX=0.5;entryY=0;entryDx=0;entryDy=0;endArrow=none;endFill=0;exitX=0.251;exitY=0.967;exitDx=0;exitDy=0;exitPerimeter=0;" edge="1" parent="1" source="GDixg9mTXuQQ2B-EIW4m-65" target="GDixg9mTXuQQ2B-EIW4m-13">
          <mxGeometry relative="1" as="geometry" />
        </mxCell>
        <mxCell id="GDixg9mTXuQQ2B-EIW4m-65" value="&lt;u&gt;Name&lt;/u&gt;" style="ellipse;whiteSpace=wrap;html=1;" vertex="1" parent="1">
          <mxGeometry x="50" y="30" width="50" height="30" as="geometry" />
        </mxCell>
        <mxCell id="GDixg9mTXuQQ2B-EIW4m-66" value="{0,N}" style="text;html=1;align=center;verticalAlign=middle;resizable=0;points=[];autosize=1;strokeColor=none;fillColor=none;" vertex="1" parent="1">
          <mxGeometry x="80" y="97.5" width="50" height="30" as="geometry" />
        </mxCell>
        <mxCell id="GDixg9mTXuQQ2B-EIW4m-67" value="{1, 1}" style="text;html=1;align=center;verticalAlign=middle;resizable=0;points=[];autosize=1;strokeColor=none;fillColor=none;" vertex="1" parent="1">
          <mxGeometry x="405" y="98" width="50" height="30" as="geometry" />
        </mxCell>
        <mxCell id="GDixg9mTXuQQ2B-EIW4m-68" style="rounded=0;orthogonalLoop=1;jettySize=auto;html=1;entryX=0.5;entryY=0;entryDx=0;entryDy=0;endArrow=none;endFill=0;" edge="1" parent="1" source="GDixg9mTXuQQ2B-EIW4m-69" target="GDixg9mTXuQQ2B-EIW4m-10">
          <mxGeometry relative="1" as="geometry" />
        </mxCell>
        <mxCell id="GDixg9mTXuQQ2B-EIW4m-69" value="R#" style="ellipse;whiteSpace=wrap;html=1;" vertex="1" parent="1">
          <mxGeometry x="440" y="10" width="50" height="30" as="geometry" />
        </mxCell>
        <mxCell id="GDixg9mTXuQQ2B-EIW4m-70" style="rounded=0;orthogonalLoop=1;jettySize=auto;html=1;entryX=0.5;entryY=0;entryDx=0;entryDy=0;endArrow=none;endFill=0;" edge="1" parent="1" source="GDixg9mTXuQQ2B-EIW4m-71" target="GDixg9mTXuQQ2B-EIW4m-10">
          <mxGeometry relative="1" as="geometry" />
        </mxCell>
        <mxCell id="GDixg9mTXuQQ2B-EIW4m-71" value="# of &lt;br&gt;sets" style="ellipse;whiteSpace=wrap;html=1;" vertex="1" parent="1">
          <mxGeometry x="530.01" y="10" width="49.99" height="30" as="geometry" />
        </mxCell>
        <mxCell id="GDixg9mTXuQQ2B-EIW4m-72" value="{0,N}" style="text;html=1;align=center;verticalAlign=middle;resizable=0;points=[];autosize=1;strokeColor=none;fillColor=none;" vertex="1" parent="1">
          <mxGeometry x="-35" y="148" width="50" height="30" as="geometry" />
        </mxCell>
        <mxCell id="GDixg9mTXuQQ2B-EIW4m-73" value="{1, 1}" style="text;html=1;align=center;verticalAlign=middle;resizable=0;points=[];autosize=1;strokeColor=none;fillColor=none;" vertex="1" parent="1">
          <mxGeometry x="-30" y="280" width="50" height="30" as="geometry" />
        </mxCell>
        <mxCell id="GDixg9mTXuQQ2B-EIW4m-74" style="rounded=0;orthogonalLoop=1;jettySize=auto;html=1;entryX=0.75;entryY=0;entryDx=0;entryDy=0;endArrow=none;endFill=0;" edge="1" parent="1" source="GDixg9mTXuQQ2B-EIW4m-75" target="GDixg9mTXuQQ2B-EIW4m-8">
          <mxGeometry relative="1" as="geometry" />
        </mxCell>
        <mxCell id="GDixg9mTXuQQ2B-EIW4m-75" value="R#" style="ellipse;whiteSpace=wrap;html=1;" vertex="1" parent="1">
          <mxGeometry x="75" y="200" width="40" height="30" as="geometry" />
        </mxCell>
        <mxCell id="GDixg9mTXuQQ2B-EIW4m-76" style="rounded=0;orthogonalLoop=1;jettySize=auto;html=1;entryX=0.75;entryY=0;entryDx=0;entryDy=0;endArrow=none;endFill=0;" edge="1" parent="1" source="GDixg9mTXuQQ2B-EIW4m-77" target="GDixg9mTXuQQ2B-EIW4m-8">
          <mxGeometry relative="1" as="geometry" />
        </mxCell>
        <mxCell id="GDixg9mTXuQQ2B-EIW4m-77" value="Size" style="ellipse;whiteSpace=wrap;html=1;" vertex="1" parent="1">
          <mxGeometry x="145" y="225" width="40" height="30" as="geometry" />
        </mxCell>
        <mxCell id="GDixg9mTXuQQ2B-EIW4m-78" value="{0,1}" style="text;html=1;align=center;verticalAlign=middle;resizable=0;points=[];autosize=1;strokeColor=none;fillColor=none;" vertex="1" parent="1">
          <mxGeometry x="-100" y="305" width="50" height="30" as="geometry" />
        </mxCell>
        <mxCell id="GDixg9mTXuQQ2B-EIW4m-79" value="{1, 1}" style="text;html=1;align=center;verticalAlign=middle;resizable=0;points=[];autosize=1;strokeColor=none;fillColor=none;" vertex="1" parent="1">
          <mxGeometry x="-160" y="490" width="50" height="30" as="geometry" />
        </mxCell>
        <mxCell id="GDixg9mTXuQQ2B-EIW4m-80" style="rounded=0;orthogonalLoop=1;jettySize=auto;html=1;entryX=0;entryY=0.5;entryDx=0;entryDy=0;endArrow=none;endFill=0;" edge="1" parent="1" source="GDixg9mTXuQQ2B-EIW4m-81" target="GDixg9mTXuQQ2B-EIW4m-31">
          <mxGeometry relative="1" as="geometry" />
        </mxCell>
        <mxCell id="GDixg9mTXuQQ2B-EIW4m-81" value="&lt;u&gt;E#&lt;/u&gt;" style="ellipse;whiteSpace=wrap;html=1;" vertex="1" parent="1">
          <mxGeometry x="-305" y="473.76" width="40" height="24.37" as="geometry" />
        </mxCell>
        <mxCell id="GDixg9mTXuQQ2B-EIW4m-82" style="edgeStyle=orthogonalEdgeStyle;rounded=0;orthogonalLoop=1;jettySize=auto;html=1;entryX=0;entryY=0.75;entryDx=0;entryDy=0;endArrow=none;endFill=0;" edge="1" parent="1" source="GDixg9mTXuQQ2B-EIW4m-83" target="GDixg9mTXuQQ2B-EIW4m-31">
          <mxGeometry relative="1" as="geometry">
            <Array as="points">
              <mxPoint x="-175" y="535" />
            </Array>
          </mxGeometry>
        </mxCell>
        <mxCell id="GDixg9mTXuQQ2B-EIW4m-83" value="Name" style="ellipse;whiteSpace=wrap;html=1;" vertex="1" parent="1">
          <mxGeometry x="-310" y="520" width="50" height="30" as="geometry" />
        </mxCell>
        <mxCell id="GDixg9mTXuQQ2B-EIW4m-84" value="phone #" style="ellipse;whiteSpace=wrap;html=1;" vertex="1" parent="1">
          <mxGeometry x="-315" y="576.96" width="60" height="40" as="geometry" />
        </mxCell>
        <mxCell id="GDixg9mTXuQQ2B-EIW4m-85" style="rounded=0;orthogonalLoop=1;jettySize=auto;html=1;entryX=0.5;entryY=1;entryDx=0;entryDy=0;endArrow=none;endFill=0;" edge="1" parent="1" source="GDixg9mTXuQQ2B-EIW4m-86" target="GDixg9mTXuQQ2B-EIW4m-23">
          <mxGeometry relative="1" as="geometry" />
        </mxCell>
        <mxCell id="GDixg9mTXuQQ2B-EIW4m-86" value="&lt;u&gt;dept #&lt;/u&gt;" style="ellipse;whiteSpace=wrap;html=1;" vertex="1" parent="1">
          <mxGeometry x="-53.75" y="950" width="52.5" height="30" as="geometry" />
        </mxCell>
        <mxCell id="GDixg9mTXuQQ2B-EIW4m-87" style="rounded=0;orthogonalLoop=1;jettySize=auto;html=1;entryX=0.5;entryY=1;entryDx=0;entryDy=0;endArrow=none;endFill=0;" edge="1" parent="1" source="GDixg9mTXuQQ2B-EIW4m-88" target="GDixg9mTXuQQ2B-EIW4m-23">
          <mxGeometry relative="1" as="geometry" />
        </mxCell>
        <mxCell id="GDixg9mTXuQQ2B-EIW4m-88" value="&lt;u&gt;Name&lt;/u&gt;" style="ellipse;whiteSpace=wrap;html=1;" vertex="1" parent="1">
          <mxGeometry x="46.25" y="950" width="57.5" height="30" as="geometry" />
        </mxCell>
        <mxCell id="GDixg9mTXuQQ2B-EIW4m-89" style="rounded=0;orthogonalLoop=1;jettySize=auto;html=1;entryX=0.5;entryY=1;entryDx=0;entryDy=0;endArrow=none;endFill=0;" edge="1" parent="1" source="GDixg9mTXuQQ2B-EIW4m-90" target="GDixg9mTXuQQ2B-EIW4m-33">
          <mxGeometry relative="1" as="geometry" />
        </mxCell>
        <mxCell id="GDixg9mTXuQQ2B-EIW4m-90" value="E#" style="ellipse;whiteSpace=wrap;html=1;" vertex="1" parent="1">
          <mxGeometry x="63.75" y="620.64" width="40" height="24.37" as="geometry" />
        </mxCell>
        <mxCell id="GDixg9mTXuQQ2B-EIW4m-91" style="rounded=0;orthogonalLoop=1;jettySize=auto;html=1;entryX=0.5;entryY=1;entryDx=0;entryDy=0;endArrow=none;endFill=0;" edge="1" parent="1" source="GDixg9mTXuQQ2B-EIW4m-92" target="GDixg9mTXuQQ2B-EIW4m-33">
          <mxGeometry relative="1" as="geometry" />
        </mxCell>
        <mxCell id="GDixg9mTXuQQ2B-EIW4m-92" value="Name" style="ellipse;whiteSpace=wrap;html=1;" vertex="1" parent="1">
          <mxGeometry x="125" y="620.6400000000001" width="50" height="30" as="geometry" />
        </mxCell>
        <mxCell id="GDixg9mTXuQQ2B-EIW4m-93" style="rounded=0;orthogonalLoop=1;jettySize=auto;html=1;entryX=0.5;entryY=1;entryDx=0;entryDy=0;endArrow=none;endFill=0;exitX=0.253;exitY=0.055;exitDx=0;exitDy=0;exitPerimeter=0;" edge="1" parent="1" source="GDixg9mTXuQQ2B-EIW4m-1" target="GDixg9mTXuQQ2B-EIW4m-33">
          <mxGeometry relative="1" as="geometry" />
        </mxCell>
        <mxCell id="GDixg9mTXuQQ2B-EIW4m-94" value="phone #" style="ellipse;whiteSpace=wrap;html=1;" vertex="1" parent="1">
          <mxGeometry x="211.25" y="615.64" width="60" height="40" as="geometry" />
        </mxCell>
        <mxCell id="GDixg9mTXuQQ2B-EIW4m-95" value="&lt;u&gt;S#&lt;/u&gt;" style="ellipse;whiteSpace=wrap;html=1;" vertex="1" parent="1">
          <mxGeometry x="660" y="668" width="50" height="30" as="geometry" />
        </mxCell>
        <mxCell id="GDixg9mTXuQQ2B-EIW4m-96" value="Name" style="ellipse;whiteSpace=wrap;html=1;" vertex="1" parent="1">
          <mxGeometry x="660" y="740" width="50" height="30" as="geometry" />
        </mxCell>
        <mxCell id="GDixg9mTXuQQ2B-EIW4m-97" style="rounded=0;orthogonalLoop=1;jettySize=auto;html=1;entryX=0.5;entryY=1;entryDx=0;entryDy=0;endArrow=none;endFill=0;" edge="1" parent="1" source="GDixg9mTXuQQ2B-EIW4m-98" target="GDixg9mTXuQQ2B-EIW4m-7">
          <mxGeometry relative="1" as="geometry" />
        </mxCell>
        <mxCell id="GDixg9mTXuQQ2B-EIW4m-98" value="C#" style="ellipse;whiteSpace=wrap;html=1;" vertex="1" parent="1">
          <mxGeometry x="395.01" y="1030" width="60" height="30" as="geometry" />
        </mxCell>
        <mxCell id="GDixg9mTXuQQ2B-EIW4m-99" style="edgeStyle=orthogonalEdgeStyle;rounded=0;orthogonalLoop=1;jettySize=auto;html=1;endArrow=none;endFill=0;" edge="1" parent="1" source="GDixg9mTXuQQ2B-EIW4m-100">
          <mxGeometry relative="1" as="geometry">
            <mxPoint x="509.3899999999999" y="950" as="targetPoint" />
          </mxGeometry>
        </mxCell>
        <mxCell id="GDixg9mTXuQQ2B-EIW4m-100" value="Name" style="ellipse;whiteSpace=wrap;html=1;" vertex="1" parent="1">
          <mxGeometry x="484.39" y="1030" width="50" height="30" as="geometry" />
        </mxCell>
        <mxCell id="GDixg9mTXuQQ2B-EIW4m-101" style="rounded=0;orthogonalLoop=1;jettySize=auto;html=1;entryX=0.5;entryY=1;entryDx=0;entryDy=0;endArrow=none;endFill=0;" edge="1" parent="1" source="GDixg9mTXuQQ2B-EIW4m-102" target="GDixg9mTXuQQ2B-EIW4m-7">
          <mxGeometry relative="1" as="geometry" />
        </mxCell>
        <mxCell id="GDixg9mTXuQQ2B-EIW4m-102" value="Credit&lt;br&gt;Hours" style="ellipse;whiteSpace=wrap;html=1;" vertex="1" parent="1">
          <mxGeometry x="570" y="1025" width="60" height="40" as="geometry" />
        </mxCell>
        <mxCell id="GDixg9mTXuQQ2B-EIW4m-103" style="rounded=0;orthogonalLoop=1;jettySize=auto;html=1;exitX=1;exitY=1;exitDx=0;exitDy=0;endArrow=none;endFill=0;" edge="1" parent="1" source="GDixg9mTXuQQ2B-EIW4m-104">
          <mxGeometry relative="1" as="geometry">
            <mxPoint x="450" y="375" as="targetPoint" />
          </mxGeometry>
        </mxCell>
        <mxCell id="GDixg9mTXuQQ2B-EIW4m-104" value="S#" style="ellipse;whiteSpace=wrap;html=1;" vertex="1" parent="1">
          <mxGeometry x="365" y="230" width="50" height="30" as="geometry" />
        </mxCell>
        <mxCell id="GDixg9mTXuQQ2B-EIW4m-105" style="rounded=0;orthogonalLoop=1;jettySize=auto;html=1;entryX=0.5;entryY=0;entryDx=0;entryDy=0;endArrow=none;endFill=0;" edge="1" parent="1" source="GDixg9mTXuQQ2B-EIW4m-106" target="GDixg9mTXuQQ2B-EIW4m-9">
          <mxGeometry relative="1" as="geometry" />
        </mxCell>
        <mxCell id="GDixg9mTXuQQ2B-EIW4m-106" value="id" style="ellipse;whiteSpace=wrap;html=1;" vertex="1" parent="1">
          <mxGeometry x="650" y="10" width="50" height="32" as="geometry" />
        </mxCell>
        <mxCell id="GDixg9mTXuQQ2B-EIW4m-107" style="rounded=0;orthogonalLoop=1;jettySize=auto;html=1;entryX=0.5;entryY=0;entryDx=0;entryDy=0;endArrow=none;endFill=0;" edge="1" parent="1" source="GDixg9mTXuQQ2B-EIW4m-108" target="GDixg9mTXuQQ2B-EIW4m-9">
          <mxGeometry relative="1" as="geometry" />
        </mxCell>
        <mxCell id="GDixg9mTXuQQ2B-EIW4m-108" value="day" style="ellipse;whiteSpace=wrap;html=1;" vertex="1" parent="1">
          <mxGeometry x="730" y="10" width="50" height="32" as="geometry" />
        </mxCell>
        <mxCell id="GDixg9mTXuQQ2B-EIW4m-109" style="rounded=0;orthogonalLoop=1;jettySize=auto;html=1;entryX=0.5;entryY=0;entryDx=0;entryDy=0;endArrow=none;endFill=0;exitX=0.5;exitY=1;exitDx=0;exitDy=0;" edge="1" parent="1" target="GDixg9mTXuQQ2B-EIW4m-9">
          <mxGeometry relative="1" as="geometry">
            <mxPoint x="835" y="40" as="sourcePoint" />
          </mxGeometry>
        </mxCell>
        <mxCell id="GDixg9mTXuQQ2B-EIW4m-110" style="rounded=0;orthogonalLoop=1;jettySize=auto;html=1;endArrow=none;endFill=0;exitX=0.247;exitY=0.979;exitDx=0;exitDy=0;exitPerimeter=0;" edge="1" parent="1" source="GDixg9mTXuQQ2B-EIW4m-111">
          <mxGeometry relative="1" as="geometry">
            <mxPoint x="780" y="110" as="targetPoint" />
          </mxGeometry>
        </mxCell>
        <mxCell id="GDixg9mTXuQQ2B-EIW4m-111" value="end time" style="ellipse;whiteSpace=wrap;html=1;" vertex="1" parent="1">
          <mxGeometry x="890" y="10" width="50" height="32" as="geometry" />
        </mxCell>
        <mxCell id="GDixg9mTXuQQ2B-EIW4m-112" value="{0,4}" style="text;html=1;align=center;verticalAlign=middle;resizable=0;points=[];autosize=1;strokeColor=none;fillColor=none;" vertex="1" parent="1">
          <mxGeometry x="70" y="310" width="50" height="30" as="geometry" />
        </mxCell>
        <mxCell id="GDixg9mTXuQQ2B-EIW4m-113" value="{1, 1}" style="text;html=1;align=center;verticalAlign=middle;resizable=0;points=[];autosize=1;strokeColor=none;fillColor=none;" vertex="1" parent="1">
          <mxGeometry x="140" y="490" width="50" height="30" as="geometry" />
        </mxCell>
        <mxCell id="GDixg9mTXuQQ2B-EIW4m-114" value="{1, 1}" style="text;html=1;align=center;verticalAlign=middle;resizable=0;points=[];autosize=1;strokeColor=none;fillColor=none;" vertex="1" parent="1">
          <mxGeometry x="-120" y="550" width="50" height="30" as="geometry" />
        </mxCell>
        <mxCell id="GDixg9mTXuQQ2B-EIW4m-115" value="{1,1}" style="text;html=1;align=center;verticalAlign=middle;resizable=0;points=[];autosize=1;strokeColor=none;fillColor=none;" vertex="1" parent="1">
          <mxGeometry x="-85" y="790" width="50" height="30" as="geometry" />
        </mxCell>
        <mxCell id="GDixg9mTXuQQ2B-EIW4m-116" value="{1, 1000}" style="text;html=1;align=center;verticalAlign=middle;resizable=0;points=[];autosize=1;strokeColor=none;fillColor=none;" vertex="1" parent="1">
          <mxGeometry x="110" y="695" width="70" height="30" as="geometry" />
        </mxCell>
        <mxCell id="GDixg9mTXuQQ2B-EIW4m-117" value="{1, 20}" style="text;html=1;align=center;verticalAlign=middle;resizable=0;points=[];autosize=1;strokeColor=none;fillColor=none;" vertex="1" parent="1">
          <mxGeometry x="110" y="895" width="60" height="30" as="geometry" />
        </mxCell>
        <mxCell id="GDixg9mTXuQQ2B-EIW4m-118" value="{1, 1}" style="text;html=1;align=center;verticalAlign=middle;resizable=0;points=[];autosize=1;strokeColor=none;fillColor=none;" vertex="1" parent="1">
          <mxGeometry x="415" y="698" width="50" height="30" as="geometry" />
        </mxCell>
        <mxCell id="GDixg9mTXuQQ2B-EIW4m-119" value="{1, 1}" style="text;html=1;align=center;verticalAlign=middle;resizable=0;points=[];autosize=1;strokeColor=none;fillColor=none;" vertex="1" parent="1">
          <mxGeometry x="395" y="895" width="50" height="30" as="geometry" />
        </mxCell>
        <mxCell id="GDixg9mTXuQQ2B-EIW4m-120" style="edgeStyle=orthogonalEdgeStyle;rounded=0;orthogonalLoop=1;jettySize=auto;html=1;endArrow=none;endFill=0;entryX=0.5;entryY=1;entryDx=0;entryDy=0;" edge="1" parent="1" source="GDixg9mTXuQQ2B-EIW4m-121" target="GDixg9mTXuQQ2B-EIW4m-8">
          <mxGeometry relative="1" as="geometry">
            <mxPoint x="10" y="370" as="targetPoint" />
          </mxGeometry>
        </mxCell>
        <mxCell id="GDixg9mTXuQQ2B-EIW4m-121" value="has" style="rhombus;whiteSpace=wrap;html=1;" vertex="1" parent="1">
          <mxGeometry x="-20" y="540" width="60" height="50" as="geometry" />
        </mxCell>
        <mxCell id="GDixg9mTXuQQ2B-EIW4m-122" style="edgeStyle=orthogonalEdgeStyle;rounded=0;orthogonalLoop=1;jettySize=auto;html=1;endArrow=none;endFill=0;" edge="1" parent="1" source="GDixg9mTXuQQ2B-EIW4m-121">
          <mxGeometry relative="1" as="geometry">
            <mxPoint x="10" y="800" as="targetPoint" />
          </mxGeometry>
        </mxCell>
        <mxCell id="GDixg9mTXuQQ2B-EIW4m-123" value="{1, 30}" style="text;html=1;align=center;verticalAlign=middle;resizable=0;points=[];autosize=1;strokeColor=none;fillColor=none;" vertex="1" parent="1">
          <mxGeometry y="770" width="60" height="30" as="geometry" />
        </mxCell>
        <mxCell id="GDixg9mTXuQQ2B-EIW4m-124" value="{1, 1}" style="text;html=1;align=center;verticalAlign=middle;resizable=0;points=[];autosize=1;strokeColor=none;fillColor=none;" vertex="1" parent="1">
          <mxGeometry y="355" width="50" height="30" as="geometry" />
        </mxCell>
        <mxCell id="GDixg9mTXuQQ2B-EIW4m-125" style="rounded=0;orthogonalLoop=1;jettySize=auto;html=1;exitX=0;exitY=0.5;exitDx=0;exitDy=0;endArrow=none;endFill=0;entryX=0.5;entryY=0;entryDx=0;entryDy=0;" edge="1" parent="1" source="GDixg9mTXuQQ2B-EIW4m-61" target="GDixg9mTXuQQ2B-EIW4m-7">
          <mxGeometry relative="1" as="geometry">
            <mxPoint x="510" y="900" as="targetPoint" />
          </mxGeometry>
        </mxCell>
        <mxCell id="GDixg9mTXuQQ2B-EIW4m-126" value="{0,N}" style="text;html=1;align=center;verticalAlign=middle;resizable=0;points=[];autosize=1;strokeColor=none;fillColor=none;" vertex="1" parent="1">
          <mxGeometry x="460" y="865" width="50" height="30" as="geometry" />
        </mxCell>
        <mxCell id="GDixg9mTXuQQ2B-EIW4m-127" value="{0,N}" style="text;html=1;align=center;verticalAlign=middle;resizable=0;points=[];autosize=1;strokeColor=none;fillColor=none;" vertex="1" parent="1">
          <mxGeometry x="570" y="895" width="50" height="30" as="geometry" />
        </mxCell>
        <mxCell id="GDixg9mTXuQQ2B-EIW4m-128" value="{1, 1}" style="text;html=1;align=center;verticalAlign=middle;resizable=0;points=[];autosize=1;strokeColor=none;fillColor=none;" vertex="1" parent="1">
          <mxGeometry x="585" y="380" width="50" height="30" as="geometry" />
        </mxCell>
        <mxCell id="GDixg9mTXuQQ2B-EIW4m-129" value="Semester" style="ellipse;whiteSpace=wrap;html=1;" vertex="1" parent="1">
          <mxGeometry x="320" y="265" width="57.51" height="30" as="geometry" />
        </mxCell>
        <mxCell id="GDixg9mTXuQQ2B-EIW4m-130" value="Year" style="ellipse;whiteSpace=wrap;html=1;" vertex="1" parent="1">
          <mxGeometry x="285.01" y="310" width="57.51" height="30" as="geometry" />
        </mxCell>
        <mxCell id="GDixg9mTXuQQ2B-EIW4m-131" value="Textbook" style="ellipse;whiteSpace=wrap;html=1;" vertex="1" parent="1">
          <mxGeometry x="280" y="370" width="67.51" height="38" as="geometry" />
        </mxCell>
        <mxCell id="GDixg9mTXuQQ2B-EIW4m-132" value="{5, 200}" style="text;html=1;align=center;verticalAlign=middle;resizable=0;points=[];autosize=1;strokeColor=none;fillColor=none;" vertex="1" parent="1">
          <mxGeometry x="510" y="415" width="60" height="30" as="geometry" />
        </mxCell>
        <mxCell id="GDixg9mTXuQQ2B-EIW4m-133" value="{1, 5}" style="text;html=1;align=center;verticalAlign=middle;resizable=0;points=[];autosize=1;strokeColor=none;fillColor=none;" vertex="1" parent="1">
          <mxGeometry x="515" y="668" width="50" height="30" as="geometry" />
        </mxCell>
        <mxCell id="GDixg9mTXuQQ2B-EIW4m-134" value="{1, 5}" style="text;html=1;align=center;verticalAlign=middle;resizable=0;points=[];autosize=1;strokeColor=none;fillColor=none;" vertex="1" parent="1">
          <mxGeometry x="205" y="518" width="50" height="30" as="geometry" />
        </mxCell>
        <mxCell id="GDixg9mTXuQQ2B-EIW4m-135" value="{1, 1}" style="text;html=1;align=center;verticalAlign=middle;resizable=0;points=[];autosize=1;strokeColor=none;fillColor=none;" vertex="1" parent="1">
          <mxGeometry x="440" y="420" width="50" height="30" as="geometry" />
        </mxCell>
        <mxCell id="GDixg9mTXuQQ2B-EIW4m-136" value="{1, 1}" style="text;html=1;align=center;verticalAlign=middle;resizable=0;points=[];autosize=1;strokeColor=none;fillColor=none;" vertex="1" parent="1">
          <mxGeometry x="580" y="330" width="50" height="30" as="geometry" />
        </mxCell>
        <mxCell id="GDixg9mTXuQQ2B-EIW4m-137" value="{1, 1}" style="text;html=1;align=center;verticalAlign=middle;resizable=0;points=[];autosize=1;strokeColor=none;fillColor=none;" vertex="1" parent="1">
          <mxGeometry x="720" y="162" width="50" height="30" as="geometry" />
        </mxCell>
        <mxCell id="GDixg9mTXuQQ2B-EIW4m-138" value="{0, N}" style="text;html=1;align=center;verticalAlign=middle;resizable=0;points=[];autosize=1;strokeColor=none;fillColor=none;" vertex="1" parent="1">
          <mxGeometry x="515" y="160" width="50" height="30" as="geometry" />
        </mxCell>
        <mxCell id="GDixg9mTXuQQ2B-EIW4m-139" value="{1, 1}" style="text;html=1;align=center;verticalAlign=middle;resizable=0;points=[];autosize=1;strokeColor=none;fillColor=none;" vertex="1" parent="1">
          <mxGeometry x="510" y="335" width="50" height="30" as="geometry" />
        </mxCell>
        <mxCell id="GDixg9mTXuQQ2B-EIW4m-140" style="rounded=0;orthogonalLoop=1;jettySize=auto;html=1;exitX=0;exitY=0.25;exitDx=0;exitDy=0;entryX=1;entryY=0.5;entryDx=0;entryDy=0;endArrow=none;endFill=0;" edge="1" parent="1" source="GDixg9mTXuQQ2B-EIW4m-6" target="GDixg9mTXuQQ2B-EIW4m-3">
          <mxGeometry relative="1" as="geometry" />
        </mxCell>
      </root>
    </mxGraphModel>
  </diagram>
</mxfile>
